HIERARCHY
ROOT hip
{
  OFFSET 5.70873 43.8894 -1.52928
  CHANNELS 6 Xposition Yposition Zposition Zrotation Xrotation Yrotation
  JOINT abdomen
  {
    OFFSET 0 5.99393 0.287273
    CHANNELS 6 Xposition Yposition Zposition Zrotation Xrotation Yrotation
    JOINT chest
    {
      OFFSET 0 6.65865 -0.856112
      CHANNELS 6 Xposition Yposition Zposition Zrotation Xrotation Yrotation
      JOINT neck
      {
        OFFSET 0 8.65624 -1.42685
        CHANNELS 6 Xposition Yposition Zposition Zrotation Xrotation Yrotation
        JOINT head
        {
          OFFSET 0 3.80999 -0.190247
          CHANNELS 6 Xposition Yposition Zposition Zrotation Xrotation Yrotation
          End Site
          {
            OFFSET 0 0 0
          }
        }
      }
      JOINT rCollar
      {
        OFFSET -1.4963 7.5744 -1.52136
        CHANNELS 6 Xposition Yposition Zposition Zrotation Xrotation Yrotation
        JOINT rShldr
        {
          OFFSET -5.47506 -0.905672 0.485692
          CHANNELS 6 Xposition Yposition Zposition Zrotation Xrotation Yrotation
          JOINT rForeArm
          {
            OFFSET -11.3069 -0.201091 0.618544
            CHANNELS 6 Xposition Yposition Zposition Zrotation Xrotation Yrotation
            JOINT rHand
            {
              OFFSET -9.61414 -0.254739 3.48553
              CHANNELS 6 Xposition Yposition Zposition Zrotation Xrotation Yrotation
              JOINT rThumb1
              {
                OFFSET 0.176263 -0.07068 1.26622
                CHANNELS 6 Xposition Yposition Zposition Zrotation Xrotation Yrotation
                JOINT rThumb2
                {
                  OFFSET -1.04683 -0.546484 1.82182
                  CHANNELS 6 Xposition Yposition Zposition Zrotation Xrotation Yrotation
                  JOINT rThumb3
                  {
                    OFFSET -0.993472 -0.621916 0.655506
                    CHANNELS 6 Xposition Yposition Zposition Zrotation Xrotation Yrotation
                    End Site
                    {
                      OFFSET -0.996134 -0.66263 0.644615
                    }
                  }
                }
              }
              JOINT rIndex1
              {
                OFFSET -2.64253 0.566363 2.4162
                CHANNELS 6 Xposition Yposition Zposition Zrotation Xrotation Yrotation
                JOINT rIndex2
                {
                  OFFSET -1.39394 -0.635138 0.899356
                  CHANNELS 6 Xposition Yposition Zposition Zrotation Xrotation Yrotation
                  JOINT rIndex3
                  {
                    OFFSET -0.622395 -0.856016 0.402182
                    CHANNELS 6 Xposition Yposition Zposition Zrotation Xrotation Yrotation
                    End Site
                    {
                      OFFSET -0.472476 -0.801802 0.34216
                    }
                  }
                }
              }
              JOINT rMid1
              {
                OFFSET -3.20814 0.514427 1.52547
                CHANNELS 6 Xposition Yposition Zposition Zrotation Xrotation Yrotation
                JOINT rMid2
                {
                  OFFSET -1.56545 -0.497974 0.68919
                  CHANNELS 6 Xposition Yposition Zposition Zrotation Xrotation Yrotation
                  JOINT rMid3
                  {
                    OFFSET -0.679943 -1.17582 0.444246
                    CHANNELS 6 Xposition Yposition Zposition Zrotation Xrotation Yrotation
                    End Site
                    {
                      OFFSET -0.343874 -0.941341 0.267611
                    }
                  }
                }
              }
              JOINT rRing1
              {
                OFFSET -3.47877 0.200518 0.597719
                CHANNELS 6 Xposition Yposition Zposition Zrotation Xrotation Yrotation
                JOINT rRing2
                {
                  OFFSET -1.28208 -0.53155 0.44672
                  CHANNELS 6 Xposition Yposition Zposition Zrotation Xrotation Yrotation
                  JOINT rRing3
                  {
                    OFFSET -0.710288 -0.970167 0.4032
                    CHANNELS 6 Xposition Yposition Zposition Zrotation Xrotation Yrotation
                    End Site
                    {
                      OFFSET -0.403228 -0.950952 0.378354
                    }
                  }
                }
              }
              JOINT rPinky1
              {
                OFFSET -3.42483 -0.278904 -0.240415
                CHANNELS 6 Xposition Yposition Zposition Zrotation Xrotation Yrotation
                JOINT rPinky2
                {
                  OFFSET -1.05787 -0.635999 0.156459
                  CHANNELS 6 Xposition Yposition Zposition Zrotation Xrotation Yrotation
                  JOINT rPinky3
                  {
                    OFFSET -0.42815 -0.754232 0.287187
                    CHANNELS 6 Xposition Yposition Zposition Zrotation Xrotation Yrotation
                    End Site
                    {
                      OFFSET -0.235717 -0.725605 0.279416
                    }
                  }
                }
              }
            }
          }
        }
      }
      JOINT lCollar
      {
        OFFSET 1.4963 7.5744 -1.52136
        CHANNELS 6 Xposition Yposition Zposition Zrotation Xrotation Yrotation
        JOINT lShldr
        {
          OFFSET 5.47506 -0.905672 0.485692
          CHANNELS 6 Xposition Yposition Zposition Zrotation Xrotation Yrotation
          JOINT lForeArm
          {
            OFFSET 11.3069 -0.201091 0.618544
            CHANNELS 6 Xposition Yposition Zposition Zrotation Xrotation Yrotation
            JOINT lHand
            {
              OFFSET 9.61414 -0.254739 3.48553
              CHANNELS 6 Xposition Yposition Zposition Zrotation Xrotation Yrotation
              JOINT lThumb1
              {
                OFFSET -0.176263 -0.07068 1.26622
                CHANNELS 6 Xposition Yposition Zposition Zrotation Xrotation Yrotation
                JOINT lThumb2
                {
                  OFFSET 1.04683 -0.546484 1.82182
                  CHANNELS 6 Xposition Yposition Zposition Zrotation Xrotation Yrotation
                  JOINT lThumb3
                  {
                    OFFSET 0.993472 -0.621916 0.655506
                    CHANNELS 6 Xposition Yposition Zposition Zrotation Xrotation Yrotation
                    End Site
                    {
                      OFFSET 0.996134 -0.66263 0.644615
                    }
                  }
                }
              }
              JOINT lIndex1
              {
                OFFSET 2.64253 0.566363 2.4162
                CHANNELS 6 Xposition Yposition Zposition Zrotation Xrotation Yrotation
                JOINT lIndex2
                {
                  OFFSET 1.39394 -0.635138 0.899356
                  CHANNELS 6 Xposition Yposition Zposition Zrotation Xrotation Yrotation
                  JOINT lIndex3
                  {
                    OFFSET 0.622395 -0.856016 0.402182
                    CHANNELS 6 Xposition Yposition Zposition Zrotation Xrotation Yrotation
                    End Site
                    {
                      OFFSET 0.472476 -0.801802 0.34216
                    }
                  }
                }
              }
              JOINT lMid1
              {
                OFFSET 3.20814 0.514427 1.52547
                CHANNELS 6 Xposition Yposition Zposition Zrotation Xrotation Yrotation
                JOINT lMid2
                {
                  OFFSET 1.56545 -0.497974 0.68919
                  CHANNELS 6 Xposition Yposition Zposition Zrotation Xrotation Yrotation
                  JOINT lMid3
                  {
                    OFFSET 0.679943 -1.17582 0.444246
                    CHANNELS 6 Xposition Yposition Zposition Zrotation Xrotation Yrotation
                    End Site
                    {
                      OFFSET 0.343874 -0.941341 0.267611
                    }
                  }
                }
              }
              JOINT lRing1
              {
                OFFSET 3.47877 0.200518 0.597719
                CHANNELS 6 Xposition Yposition Zposition Zrotation Xrotation Yrotation
                JOINT lRing2
                {
                  OFFSET 1.28208 -0.53155 0.44672
                  CHANNELS 6 Xposition Yposition Zposition Zrotation Xrotation Yrotation
                  JOINT lRing3
                  {
                    OFFSET 0.710288 -0.970167 0.4032
                    CHANNELS 6 Xposition Yposition Zposition Zrotation Xrotation Yrotation
                    End Site
                    {
                      OFFSET 0.403228 -0.950952 0.378354
                    }
                  }
                }
              }
              JOINT lPinky1
              {
                OFFSET 3.42483 -0.278904 -0.240415
                CHANNELS 6 Xposition Yposition Zposition Zrotation Xrotation Yrotation
                JOINT lPinky2
                {
                  OFFSET 1.05787 -0.635999 0.156459
                  CHANNELS 6 Xposition Yposition Zposition Zrotation Xrotation Yrotation
                  JOINT lPinky3
                  {
                    OFFSET 0.42815 -0.754232 0.287187
                    CHANNELS 6 Xposition Yposition Zposition Zrotation Xrotation Yrotation
                    End Site
                    {
                      OFFSET 0.235717 -0.725605 0.279416
                    }
                  }
                }
              }
            }
          }
        }
      }
    }
  }
  JOINT rThigh
  {
    OFFSET -4.17848 -1.02486 0.046356
    CHANNELS 6 Xposition Yposition Zposition Zrotation Xrotation Yrotation
    JOINT rShin
    {
      OFFSET 1.27155 -17.465 -0.237699
      CHANNELS 6 Xposition Yposition Zposition Zrotation Xrotation Yrotation
      JOINT rFoot
      {
        OFFSET 0.529163 -17.3815 -1.19582
        CHANNELS 6 Xposition Yposition Zposition Zrotation Xrotation Yrotation
        JOINT rToe
        {
          OFFSET -0.711591 -4.4863 4.0596
          CHANNELS 6 Xposition Yposition Zposition Zrotation Xrotation Yrotation
          End Site
          {
            OFFSET -0.869915 -1.10655 1.99006
          }
        }
      }
    }
  }
  JOINT lThigh
  {
    OFFSET 4.17848 -1.02486 0.046356
    CHANNELS 6 Xposition Yposition Zposition Zrotation Xrotation Yrotation
    JOINT lShin
    {
      OFFSET -1.27155 -17.465 -0.237699
      CHANNELS 6 Xposition Yposition Zposition Zrotation Xrotation Yrotation
      JOINT lFoot
      {
        OFFSET -0.529163 -17.3815 -1.19582
        CHANNELS 6 Xposition Yposition Zposition Zrotation Xrotation Yrotation
        JOINT lToe
        {
          OFFSET 0.711591 -4.4863 4.0596
          CHANNELS 6 Xposition Yposition Zposition Zrotation Xrotation Yrotation
          End Site
          {
            OFFSET 0.869915 -1.10655 1.99006
          }
        }
      }
    }
  }
}
MOTION
Frames:	4
Frame Time:	0.0333333
-3.34926 19.219 -7.1336 18.7563 3.16448 7.50564 0 5.99393 0.287273 5.83419 34.0098 -4.07876 0 6.65865 -0.856112 24.1141 66.7466 -21.0915 -1.77636e-015 8.65624 -1.42685 4.69767 -9.39529 -4.53528 -1.11022e-015 3.80999 -0.190247 -4.58652 -22.2723 -7.72465 -1.4963 7.5744 -1.52136 -21.3952 -0.207294 4.54164 -5.47506 -0.905672 0.485692 9.71221 -40.5612 37.6223 -11.3069 -0.201091 0.618544 -10.6141 -8.31257 13.8644 -9.61414 -0.254739 3.48553 -26.3503 -45.736 -19.3977 0.176263 -0.07068 1.26622 -2.16494 8.22331 -9.30939 -1.04683 -0.546484 1.82182 1.4827 -1.44791 4.28422 -0.993472 -0.621916 0.655506 4.1343 -3.56528 11.3833 -2.64253 0.566363 2.4162 -11.9591 -0.846263 1.05575 -1.39394 -0.635138 0.899356 -4.28261 -1.16503 0.588067 -0.622395 -0.856016 0.402182 -9.91799 -2.76283 1.22807 -3.20814 0.514427 1.52547 -20.9639 -6.3605 1.79209 -1.56545 -0.497974 0.68919 -8.10349 -2.56897 0.975775 -0.679943 -1.17582 0.444246 -17.8883 -5.82282 1.6604 -3.47877 0.200518 0.597719 -29.1829 -9.35712 1.31837 -1.28208 -0.53155 0.44672 -4.51872 -1.59849 0.764328 -0.710288 -0.970167 0.4032 -17.0487 -6.31197 2.21115 -3.42483 -0.278904 -0.240415 -31.9157 -8.36441 -1.1761 -1.05787 -0.635999 0.156459 -6.71257 -2.58568 0.98591 -0.42815 -0.754232 0.287187 -16.7191 -6.62444 1.88501 1.4963 7.5744 -1.52136 20.678 -11.8631 11.3451 5.47506 -0.905672 0.485692 -51.0869 -1.92537 -40.3294 11.3069 -0.201091 0.618544 -38.3475 -34.7318 -92.9313 9.61414 -0.254739 3.48553 36.5128 12.0511 -60.0119 -0.176263 -0.07068 1.26622 -5.15207 3.24331 -7.70837 1.04683 -0.546484 1.82182 -3.80921 -0.892275 -6.71979 0.993472 -0.621916 0.655506 -3.37334 -0.813797 -5.9568 2.64253 0.566363 2.4162 16.0497 -8.2705 -10.7909 1.39394 -0.635138 0.899356 11.5718 -4.37343 -4.26248 0.622395 -0.856016 0.402182 13.829 -5.33524 -4.99927 3.20814 0.514427 1.52547 17.2481 -10.996 -6.61994 1.56545 -0.497974 0.68919 14.1587 -6.14197 -5.07135 0.679943 -1.17582 0.444246 15.7891 -6.93702 -5.56486 3.47877 0.200518 0.597719 17.5087 -7.0701 -4.38265 1.28208 -0.53155 0.44672 14.8441 -7.20453 -6.04347 0.710288 -0.970167 0.4032 15.5326 -7.58194 -6.28372 3.42483 -0.278904 -0.240415 18.4651 -6.58566 -1.98843 1.05787 -0.635999 0.156459 16.6762 -8.76758 -6.42828 0.42815 -0.754232 0.287187 15.2011 -7.91282 -5.95464 -4.17848 -1.02486 0.046356 -92.039 -77.9269 -60.0988 1.27155 -17.465 -0.237699 168.269 32.5538 -154.207 0.529163 -17.3815 -1.19582 -28.9195 -46.2192 -9.81281 -0.711591 -4.4863 4.0596 -2.71318 -19.7306 0.0621371 4.17848 -1.02486 0.046356 91.0648 -80.3077 76.7135 -1.27155 -17.465 -0.237699 171.587 64.4158 -178.207 -0.529163 -17.3815 -1.19582 -33.3208 -21.2394 -18.2576 0.711591 -4.4863 4.0596 0.996606 -7.8526 0.46472 
-3.1137 18.0196 -7.92297 18.5986 -1.14355 7.84841 8.88178e-016 5.99393 0.287273 6.05268 34.4236 -3.88422 0 6.65865 -0.856112 25.1554 67.5316 -21.4238 0 8.65624 -1.42685 4.82391 -8.86147 -4.78921 4.44089e-016 3.80999 -0.190247 -4.16064 -22.786 -7.46641 -1.4963 7.5744 -1.52136 -22.0574 -0.224315 5.18814 -5.47506 -0.905672 0.485692 9.30181 -40.4213 36.279 -11.3069 -0.201091 0.618544 -9.64778 -8.61346 13.5454 -9.61414 -0.254739 3.48553 -22.7783 -44.5262 -17.4239 0.176263 -0.07068 1.26622 -2.91747 7.86188 -9.47615 -1.04683 -0.546484 1.82182 1.48269 -1.44791 4.28419 -0.993472 -0.621916 0.655506 3.69401 -3.25008 10.2444 -2.64253 0.566363 2.4162 -11.2371 0.133518 0.13153 -1.39394 -0.635138 0.899356 -3.64298 -0.9881 0.505709 -0.622395 -0.856016 0.402182 -8.76299 -2.43007 1.10957 -3.20814 0.514427 1.52547 -18.3713 -4.92229 1.76188 -1.56545 -0.497974 0.68919 -7.54792 -2.38835 0.920439 -0.679943 -1.17582 0.444246 -15.8337 -5.13092 1.56286 -3.47877 0.200518 0.597719 -25.3526 -8.25768 1.62225 -1.28208 -0.53155 0.44672 -4.40447 -1.55726 0.74653 -0.710288 -0.970167 0.4032 -15.1645 -5.584 2.0595 -3.42483 -0.278904 -0.240415 -27.4736 -7.69396 -0.172045 -1.05787 -0.635999 0.156459 -6.59924 -2.541 0.971737 -0.42815 -0.754232 0.287187 -14.8446 -5.85701 1.7704 1.4963 7.5744 -1.52136 20.3453 -11.8259 11.2494 5.47506 -0.905672 0.485692 -50.6721 -1.67501 -40.8334 11.3069 -0.201091 0.618544 -38.3852 -34.708 -92.804 9.61414 -0.254739 3.48553 36.3893 12.3705 -60.086 -0.176263 -0.07068 1.26622 -5.90935 3.39504 -8.54601 1.04683 -0.546484 1.82182 -3.80924 -0.892322 -6.71977 0.993472 -0.621916 0.655506 -3.37336 -0.813859 -5.95677 2.64253 0.566363 2.4162 16.2589 -8.8789 -11.5487 1.39394 -0.635138 0.899356 12.0084 -4.55686 -4.40757 0.622395 -0.856016 0.402182 14.2891 -5.53524 -5.14518 3.20814 0.514427 1.52547 17.7488 -11.6674 -6.83989 1.56545 -0.497974 0.68919 14.5555 -6.33404 -5.19331 0.679943 -1.17582 0.444246 16.2404 -7.15992 -5.6977 3.47877 0.200518 0.597719 18.0467 -7.23372 -4.38753 1.28208 -0.53155 0.44672 15.2789 -7.44255 -6.19541 0.710288 -0.970167 0.4032 15.9669 -7.82173 -6.43288 3.42483 -0.278904 -0.240415 19.1236 -6.65937 -1.80788 1.05787 -0.635999 0.156459 17.1062 -9.02179 -6.56318 0.42815 -0.754232 0.287187 15.6255 -8.13582 -6.08634 -4.17848 -1.02486 0.046356 -103.712 -77.8631 -70.1514 1.27155 -17.465 -0.237699 169.56 29.3344 -154.292 0.529163 -17.3815 -1.19582 -26.2774 -44.9286 -6.84421 -0.711591 -4.4863 4.0596 -2.7206 -19.7821 0.0609004 4.17848 -1.02486 0.046356 100.844 -79.8911 85.1642 -1.27155 -17.465 -0.237699 171.96 61.8064 -178.458 -0.529163 -17.3815 -1.19582 -32.7086 -17.7371 -18.6805 0.711591 -4.4863 4.0596 1.18457 -9.26371 0.563858 
-3.02134 17.0635 -8.58206 18.7599 -4.18025 8.10655 4.44089e-016 5.99393 0.287273 5.93847 34.7262 -3.61265 -1.77636e-015 6.65865 -0.856112 24.9209 68.2075 -20.9203 -8.88178e-016 8.65624 -1.42685 4.88417 -8.70539 -4.87522 1.33227e-015 3.80999 -0.190247 -4.54872 -23.1196 -7.25123 -1.4963 7.5744 -1.52136 -22.2501 -0.231828 5.55874 -5.47506 -0.905672 0.485692 9.58776 -40.9397 35.9339 -11.3069 -0.201091 0.618544 -8.0801 -10.7602 13.0679 -9.61414 -0.254739 3.48553 -18.028 -42.3755 -13.7537 0.176263 -0.07068 1.26622 -3.62875 7.52711 -9.63868 -1.04683 -0.546484 1.82182 1.48268 -1.44791 4.2842 -0.993472 -0.621916 0.655506 3.26021 -2.92619 9.10826 -2.64253 0.566363 2.4162 -10.4499 1.09087 -0.752189 -1.39394 -0.635138 0.899356 -3.00316 -0.812105 0.421361 -0.622395 -0.856016 0.402182 -7.60755 -2.09975 0.984441 -3.20814 0.514427 1.52547 -15.8038 -3.53494 1.68299 -1.56545 -0.497974 0.68919 -6.95823 -2.19727 0.859792 -0.679943 -1.17582 0.444246 -13.7801 -4.44296 1.44062 -3.47877 0.200518 0.597719 -21.6046 -7.1874 1.79665 -1.28208 -0.53155 0.44672 -4.29021 -1.51608 0.728612 -0.710288 -0.970167 0.4032 -13.2805 -4.8614 1.88409 -3.42483 -0.278904 -0.240415 -23.1297 -7.00695 0.65599 -1.05787 -0.635999 0.156459 -6.48589 -2.49637 0.957475 -0.42815 -0.754232 0.287187 -12.971 -5.09373 1.63077 1.4963 7.5744 -1.52136 20.1586 -11.8301 11.2724 5.47506 -0.905672 0.485692 -50.4418 -1.00523 -41.672 11.3069 -0.201091 0.618544 -38.5715 -34.1599 -92.9821 9.61414 -0.254739 3.48553 36.6478 13.164 -60.3716 -0.176263 -0.07068 1.26622 -6.48638 3.52541 -9.181 1.04683 -0.546484 1.82182 -3.80931 -0.892409 -6.71973 0.993472 -0.621916 0.655506 -3.37332 -0.813736 -5.95683 2.64253 0.566363 2.4162 16.4122 -9.339 -12.1292 1.39394 -0.635138 0.899356 12.3413 -4.69759 -4.51738 0.622395 -0.856016 0.402182 14.64 -5.68865 -5.25547 3.20814 0.514427 1.52547 18.1279 -12.1805 -7.00737 1.56545 -0.497974 0.68919 14.8582 -6.48119 -5.28553 0.679943 -1.17582 0.444246 16.5846 -7.3307 -5.79793 3.47877 0.200518 0.597719 18.4573 -7.3596 -4.38966 1.28208 -0.53155 0.44672 15.6105 -7.62495 -6.3102 0.710288 -0.970167 0.4032 16.298 -8.00551 -6.54558 3.42483 -0.278904 -0.240415 19.6261 -6.71635 -1.66817 1.05787 -0.635999 0.156459 17.4342 -9.21647 -6.66493 0.42815 -0.754232 0.287187 15.9731 -8.35465 -6.20378 -4.17848 -1.02486 0.046356 -116.92 -77.2999 -82.1048 1.27155 -17.465 -0.237699 170.477 26.9929 -154.263 0.529163 -17.3815 -1.19582 -24.8286 -43.403 -4.09803 -0.711591 -4.4863 4.0596 -2.65223 -19.3068 0.0709098 4.17848 -1.02486 0.046356 109.478 -79.2511 92.9373 -1.27155 -17.465 -0.237699 172.181 60.3579 -178.702 -0.529163 -17.3815 -1.19582 -32.1556 -14.4516 -18.8917 0.711591 -4.4863 4.0596 1.22238 -9.54469 0.584204 
-3.02666 16.3179 -9.07004 18.9321 -7.81897 8.70194 -4.44089e-016 5.99393 0.287273 5.91271 35.3844 -3.5768 -8.88178e-016 6.65865 -0.856112 25.9137 69.4708 -21.8993 1.77636e-015 8.65624 -1.42685 4.91088 -8.63518 -4.65137 -1.11022e-015 3.80999 -0.190247 -5.34895 -22.953 -7.40952 -1.4963 7.5744 -1.52136 -22.8466 -0.252732 6.56335 -5.47506 -0.905672 0.485692 9.40621 -41.0874 33.9012 -11.3069 -0.201091 0.618544 -6.82811 -13.5571 14.0484 -9.61414 -0.254739 3.48553 -12.6598 -41.7364 -10.0122 0.176263 -0.07068 1.26622 -4.28196 7.22868 -9.7908 -1.04683 -0.546484 1.82182 1.4827 -1.4479 4.28422 -0.993472 -0.621916 0.655506 2.84398 -2.60251 8.00418 -2.64253 0.566363 2.4162 -9.60376 2.00588 -1.57747 -1.39394 -0.635138 0.899356 -2.3479 -0.632917 0.333023 -0.622395 -0.856016 0.402182 -6.45164 -1.77202 0.852666 -3.20814 0.514427 1.52547 -13.3007 -2.22569 1.55759 -1.56545 -0.497974 0.68919 -6.33652 -1.99655 0.793739 -0.679943 -1.17582 0.444246 -11.7816 -3.77799 1.29808 -3.47877 0.200518 0.597719 -17.9995 -6.15767 1.86118 -1.28208 -0.53155 0.44672 -4.14576 -1.46407 0.705905 -0.710288 -0.970167 0.4032 -11.4411 -4.16188 1.69012 -3.42483 -0.278904 -0.240415 -18.9625 -6.31869 1.29668 -1.05787 -0.635999 0.156459 -6.33169 -2.43567 0.937971 -0.42815 -0.754232 0.287187 -11.1719 -4.36188 1.47207 1.4963 7.5744 -1.52136 20.3866 -11.8296 11.2586 5.47506 -0.905672 0.485692 -50.7121 -0.227237 -41.6593 11.3069 -0.201091 0.618544 -39.465 -33.3587 -93.918 9.61414 -0.254739 3.48553 37.6238 14.7273 -61.4778 -0.176263 -0.07068 1.26622 -6.85476 3.61386 -9.58382 1.04683 -0.546484 1.82182 -3.80916 -0.892244 -6.71976 0.993472 -0.621916 0.655506 -3.37333 -0.813743 -5.95682 2.64253 0.566363 2.4162 16.5072 -9.63056 -12.5006 1.39394 -0.635138 0.899356 12.5536 -4.7877 -4.587 0.622395 -0.856016 0.402182 14.8637 -5.78687 -5.32537 3.20814 0.514427 1.52547 18.3683 -12.5081 -7.11404 1.56545 -0.497974 0.68919 15.0512 -6.57529 -5.34393 0.679943 -1.17582 0.444246 16.8041 -7.43998 -5.86138 3.47877 0.200518 0.597719 18.7197 -7.43748 -4.39212 1.28208 -0.53155 0.44672 15.822 -7.74164 -6.38287 0.710288 -0.970167 0.4032 16.5091 -8.12306 -6.61691 3.42483 -0.278904 -0.240415 19.9465 -6.75295 -1.57817 1.05787 -0.635999 0.156459 17.6434 -9.34096 -6.72925 0.42815 -0.754232 0.287187 16.1617 -8.45718 -6.26193 -4.17848 -1.02486 0.046356 -122.681 -76.7436 -87.5159 1.27155 -17.465 -0.237699 171.101 25.4103 -154.295 0.529163 -17.3815 -1.19582 -23.7222 -40.7969 -2.34025 -0.711591 -4.4863 4.0596 -2.5479 -18.5776 0.0850941 4.17848 -1.02486 0.046356 110.089 -79.3583 92.4602 -1.27155 -17.465 -0.237699 172.359 59.5169 -179.044 -0.529163 -17.3815 -1.19582 -31.7336 -11.6843 -18.7894 0.711591 -4.4863 4.0596 1.31617 -10.2373 0.635242 
